<?xml version="1.0" standalone="yes"?>
<svg xmlns="http://www.w3.org/2000/svg" width="106" height="106">
<path style="fill:#ffffff; stroke:none;" d="M0 0L0 46L1 46C2.81719 23.7517 23.7517 2.81721 46 1C34.0611 -4.00977 13.0035 0 0 0z"/>
<path style="fill:#01a3e9; stroke:none;" d="M46 0.439041C37.7955 1.72046 29.8746 4.48644 23 9.22068C-21.6128 39.9436 5.85744 113.346 60 105.572C68.1664 104.399 76.1983 101.714 83 96.9568C126.927 66.2333 100.698 -8.10404 46 0.439041z"/>
<path style="fill:#ffffff; stroke:none;" d="M60 0L60 1C82.4197 2.83121 103.172 23.6162 105 46L106 46L106 0L60 0M43 64L42 64L27 48C16.0682 55.7986 26.0784 62.0816 33 69C35.8134 71.8121 40.3754 78.4487 45 76.2485C56.2492 70.8966 67.2002 54.8185 76 46C78.9883 43.0053 85.0563 38.6984 81.6235 34.0633C77.2843 28.2045 72.6181 33.4092 69 37.0008C60.3328 45.6045 50.0373 54.0097 43 64M0 60L0 106L46 106L46 105C18.537 102.757 10.1278 81.0333 0 60M105 60C103.999 81.9017 81.8833 104 60 105L60 106L106 106C106 92.9966 110.01 71.9389 105 60z"/>
</svg>
